<?xml version="1.0" encoding="UTF-8"?>
<svg width="1080" height="1920" viewBox="0 0 1080 1920" xmlns="http://www.w3.org/2000/svg">
  <rect width="1080" height="1920" fill="#ffffff"/>
  <rect x="0" y="0" width="1080" height="118" fill="#ffffff"/>
  <text x="70" y="92" font-family="Avenir Next, Arial, Helvetica, sans-serif" font-size="33" font-weight="700" fill="#777777" >@yourcollegeappadv</text>
  <rect x="890" y="48" width="112" height="54" rx="27" fill="#f5f5f5"/>
  <text x="946" y="84" font-family="Avenir Next, Arial, Helvetica, sans-serif" font-size="27" font-weight="800" fill="#0b0b0b" text-anchor="middle">1/3</text>
  <line x1="0" y1="118" x2="1080" y2="118" stroke="#ececec" stroke-width="2"/>
  
    
    <g transform="translate(540 345) scale(0.92)">
      <circle cx="0" cy="0" r="112" fill="#fffaf2" stroke="#e6d7bf" stroke-width="4"/>
      <circle cx="0" cy="-8" r="72" fill="#f2eadc" opacity="0.75"/>
      <path d="M-48 -40 L0 -66 L52 -40 L0 -12 Z" fill="none" stroke="#665440" stroke-width="7" stroke-linejoin="round"/>
      <path d="M-31 -22 L-31 42 L33 42 L33 -22" fill="none" stroke="#665440" stroke-width="7" stroke-linecap="round"/>
      <path d="M-14 -1 L16 -1 M-14 18 L16 18" stroke="#665440" stroke-width="6" stroke-linecap="round"/>
      <path d="M50 -40 L72 -24 L72 14" fill="none" stroke="#665440" stroke-width="6" stroke-linecap="round"/>
      <circle cx="72" cy="20" r="8" fill="#665440"/>
      <text x="-78" y="91" font-family="Georgia, 'Times New Roman', serif" font-size="22" font-weight="800" fill="#665440" >YOUR COLLEGE</text>
      <text x="-74" y="116" font-family="Georgia, 'Times New Roman', serif" font-size="22" font-weight="800" fill="#665440" >APP ADVISOR</text>
    </g>
  
    <text x="540" y="560" font-family="Avenir Next, Arial, Helvetica, sans-serif" font-size="33" font-weight="700" fill="#777777" text-anchor="middle">✨ college app prep</text>
    <text x="540" y="742" font-family="Avenir Next, Arial, Helvetica, sans-serif" font-size="104" font-weight="850" fill="#0b0b0b" text-anchor="middle">what to do</text>
<text x="540" y="858" font-family="Avenir Next, Arial, Helvetica, sans-serif" font-size="104" font-weight="850" fill="#0b0b0b" text-anchor="middle">in may</text>
    <rect x="238" y="950" width="604" height="88" rx="44" fill="#f2eadc"/>
    <text x="540" y="1006" font-family="Avenir Next, Arial, Helvetica, sans-serif" font-size="38" font-weight="800" fill="#665440" text-anchor="middle">if you're aiming for T20s</text>
    <text x="540" y="1210" font-family="Avenir Next, Arial, Helvetica, sans-serif" font-size="41" font-weight="650" fill="#777777" text-anchor="middle">start before senior year gets chaotic</text>
    <rect x="198" y="1458" width="684" height="94" rx="47" fill="#0b0b0b"/>
    <text x="540" y="1518" font-family="Avenir Next, Arial, Helvetica, sans-serif" font-size="38" font-weight="800" fill="#ffffff" text-anchor="middle">save this</text>
  
</svg>