<?xml version="1.0" encoding="UTF-8"?>
<svg width="1080" height="1350" viewBox="0 0 1080 1350" xmlns="http://www.w3.org/2000/svg">
  <defs>
    <linearGradient id="bg" x1="0" y1="0" x2="1" y2="1">
      <stop offset="0" stop-color="#fbf7ef"/>
      <stop offset="0.46" stop-color="#f7fbf8"/>
      <stop offset="1" stop-color="#edf4ff"/>
    </linearGradient>
    <filter id="shadow" x="-20%" y="-20%" width="140%" height="140%">
      <feDropShadow dx="0" dy="18" stdDeviation="22" flood-color="#17213d" flood-opacity="0.14"/>
    </filter>
    <pattern id="grid" width="54" height="54" patternUnits="userSpaceOnUse">
      <path d="M 54 0 L 0 0 0 54" fill="none" stroke="#16213d" stroke-width="1" opacity="0.055"/>
    </pattern>
  </defs>
  <rect width="1080" height="1350" fill="url(#bg)"/>
  <rect width="1080" height="1350" fill="url(#grid)"/>
  <circle cx="955" cy="96" r="164" fill="#ff715b" opacity="0.19"/>
  <circle cx="112" cy="1192" r="214" fill="#69d2c1" opacity="0.22"/>
  <rect x="74" y="74" width="932" height="1202" rx="42" fill="#fffdf8" filter="url(#shadow)" opacity="0.92"/>
  <rect x="108" y="108" width="864" height="1134" rx="34" fill="none" stroke="#16213d" stroke-width="2" opacity="0.12"/>
  <text x="132" y="168" font-size="30" font-weight="800" fill="#485065" >@yourcollegeappadv</text>
  
    <rect x="838" y="128" width="104" height="54" rx="27" fill="#16213d"/>
    <text x="890" y="168" font-size="31" font-weight="800" fill="#ffffff" text-anchor="middle">1/3</text>
  
  
    
    <rect x="132" y="246" width="318" height="64" rx="32" fill="#d9f2eb"/>
    <text x="291" y="291" font-size="31" font-weight="800" fill="#16213d" text-anchor="middle">MAY CHECKLIST</text>
  
    <text x="132" y="402" font-size="103" font-weight="900" fill="#16213d" >Targeting</text>
<text x="132" y="512" font-size="103" font-weight="900" fill="#16213d" >T20 schools?</text>
<text x="132" y="622" font-size="103" font-weight="900" fill="#16213d" >Start now.</text>
    <path d="M132 748 C260 698, 368 817, 502 759 C638 700, 724 620, 912 678" fill="none" stroke="#ff715b" stroke-width="17" stroke-linecap="round" opacity="0.92"/>
    <text x="132" y="846" font-size="47" font-weight="650" fill="#485065" >What to do in May before</text>
<text x="132" y="908" font-size="47" font-weight="650" fill="#485065" >college app season gets loud.</text>
    <rect x="132" y="1058" width="384" height="88" rx="44" fill="#16213d"/>
    <text x="324" y="1113" font-size="38" font-weight="850" fill="#ffffff" text-anchor="middle">save this</text>
    <rect x="540" y="1058" width="264" height="88" rx="44" fill="#ff715b"/>
    <text x="672" y="1113" font-size="38" font-weight="850" fill="#ffffff" text-anchor="middle">swipe</text>
  
</svg>